<svg width="315" height="407" viewBox="0 0 315 407" fill="none" xmlns="http://www.w3.org/2000/svg">
<path d="M78.2275 56.1351H227.005V204.49H78.2275V56.1351Z" fill="#BCD0FC"/>
<path d="M153.646 106.04H273.184V154.574H153.646V106.04Z" fill="#BCD0FC"/>
<path d="M53.8032 95.2808H96.3662V134.516H53.8032V95.2808Z" fill="#BCD0FC"/>
<path d="M62.8105 79.2849H105.594V101.909H62.8105V79.2849Z" fill="#056126"/>
<path d="M74.7358 56.658H143.728V82.5106H74.7358V56.658Z" fill="#056126"/>
<path d="M193.399 144.157H236.976V161.906H193.399V144.157Z" fill="#056126"/>
<path d="M173.405 151.622H209.887V168.438H173.405V151.622Z" fill="#056126"/>
<mask id="mask0_2_1634" style="mask-type:luminance" maskUnits="userSpaceOnUse" x="77" y="0" width="151" height="60">
<path d="M77.938 0H227.377V59.0803H77.938V0Z" fill="white"/>
</mask>
<g mask="url(#mask0_2_1634)">
<path d="M78.1279 -3.05176e-05H227.098V58.8528H78.1279V-3.05176e-05Z" fill="#3673F5"/>
</g>
<path d="M47.7305 39.2364H260.545V58.854H47.7305V39.2364Z" fill="#3673F5"/>
<path d="M53.8032 190.563H260.542V325.075H53.8032V190.563Z" fill="#3673F5"/>
<path d="M102.401 190.513H138.987V283.09H102.401V190.513Z" fill="#056126"/>
<path d="M107.454 223.057H133.493V252.242H107.454V223.057Z" fill="#7FF8AA"/>
<path d="M102.435 274.611H218.014V325.098H102.435V274.611Z" fill="#056126"/>
<path d="M178.899 190.307H217.541V291.04H178.899V190.307Z" fill="#056126"/>
<path d="M186.793 224.293H210.886V252.107H186.793V224.293Z" fill="#7FF8AA"/>
<path d="M32.9326 311.442H89.8893V394.771H32.9326V311.442Z" fill="#3673F5"/>
<mask id="mask1_2_1634" style="mask-type:luminance" maskUnits="userSpaceOnUse" x="32" y="372" width="78" height="35">
<path d="M32.0488 372.08H109.71V406.762H32.0488V372.08Z" fill="white"/>
</mask>
<g mask="url(#mask1_2_1634)">
<path d="M32.1289 372.356H109.349V406.724H32.1289V372.356Z" fill="#056126"/>
</g>
<path d="M227.772 303.273H278.122V397.328H227.772V303.273Z" fill="#3673F5"/>
<mask id="mask2_2_1634" style="mask-type:luminance" maskUnits="userSpaceOnUse" x="226" y="372" width="72" height="35">
<path d="M226.206 372.671H297.984V406.765H226.206V372.671Z" fill="white"/>
</mask>
<g mask="url(#mask2_2_1634)">
<path d="M226.727 372.815H297.516V406.727H226.727V372.815Z" fill="#056126"/>
</g>
<path d="M0.666016 224.147H46.3339V272.681H0.666016V224.147Z" fill="#BCD0FC"/>
<mask id="mask3_2_1634" style="mask-type:luminance" maskUnits="userSpaceOnUse" x="0" y="202" width="71" height="52">
<path d="M0 202.049H70.2978V253.235H0V202.049Z" fill="white"/>
</mask>
<g mask="url(#mask3_2_1634)">
<path d="M0.124512 202.441H69.8294V252.685H0.124512V202.441Z" fill="#3673F5"/>
</g>
<path d="M267.725 222.157H313.395V270.688H267.725V222.157Z" fill="#BCD0FC"/>
<mask id="mask4_2_1634" style="mask-type:luminance" maskUnits="userSpaceOnUse" x="241" y="197" width="74" height="53">
<path d="M241.496 197.93H314.547V249.116H241.496V197.93Z" fill="white"/>
</mask>
<g mask="url(#mask4_2_1634)">
<path d="M241.527 198.31H314.491V248.756H241.527V198.31Z" fill="#3673F5"/>
</g>
<path d="M220.58 96.8407C220.58 108.341 210.466 117.665 197.989 117.665C185.514 117.665 175.399 108.341 175.399 96.8407C175.399 85.3427 185.514 76.0188 197.989 76.0188C210.466 76.0188 220.58 85.3427 220.58 96.8407Z" fill="#BCD0FC"/>
<path d="M159.159 163.766H195.643V180.579H159.159V163.766Z" fill="#056126"/>
<rect x="189.364" y="81" width="35" height="9" transform="rotate(45 189.364 81)" fill="#020B20"/>
<rect width="35" height="9" transform="matrix(-0.707107 0.707107 0.707107 0.707107 207.749 81)" fill="#020B20"/>
</svg>
