<svg width="315" height="407" viewBox="0 0 315 407" fill="none" xmlns="http://www.w3.org/2000/svg">
<path d="M78.2275 56.1351H227.005V204.49H78.2275V56.1351Z" fill="#BCD0FC"/>
<path d="M153.646 106.04H273.184V154.574H153.646V106.04Z" fill="#BCD0FC"/>
<path d="M53.8032 95.2808H96.3662V134.516H53.8032V95.2808Z" fill="#BCD0FC"/>
<path d="M62.8105 79.2849H105.594V101.909H62.8105V79.2849Z" fill="#056126"/>
<path d="M74.7358 56.658H143.728V82.5106H74.7358V56.658Z" fill="#056126"/>
<path d="M193.399 144.157H236.976V161.906H193.399V144.157Z" fill="#056126"/>
<path d="M173.405 151.622H209.887V168.438H173.405V151.622Z" fill="#056126"/>
<mask id="mask0_2_440" style="mask-type:luminance" maskUnits="userSpaceOnUse" x="77" y="0" width="151" height="60">
<path d="M77.938 0H227.377V59.0803H77.938V0Z" fill="white"/>
</mask>
<g mask="url(#mask0_2_440)">
<path d="M78.1279 -3.05176e-05H227.098V58.8528H78.1279V-3.05176e-05Z" fill="#3673F5"/>
</g>
<path d="M47.7305 39.2364H260.545V58.854H47.7305V39.2364Z" fill="#3673F5"/>
<path d="M53.8032 190.563H260.542V325.075H53.8032V190.563Z" fill="#3673F5"/>
<path d="M102.401 190.513H138.987V283.09H102.401V190.513Z" fill="#056126"/>
<path d="M107.454 223.057H133.493V252.242H107.454V223.057Z" fill="#7FF8AA"/>
<path d="M102.435 274.611H218.014V325.098H102.435V274.611Z" fill="#056126"/>
<path d="M178.899 190.307H217.541V291.04H178.899V190.307Z" fill="#056126"/>
<path d="M186.793 224.293H210.886V252.107H186.793V224.293Z" fill="#7FF8AA"/>
<path d="M32.9326 311.442H89.8893V394.771H32.9326V311.442Z" fill="#3673F5"/>
<mask id="mask1_2_440" style="mask-type:luminance" maskUnits="userSpaceOnUse" x="32" y="372" width="78" height="35">
<path d="M32.0488 372.08H109.71V406.762H32.0488V372.08Z" fill="white"/>
</mask>
<g mask="url(#mask1_2_440)">
<path d="M32.1289 372.356H109.349V406.724H32.1289V372.356Z" fill="#056126"/>
</g>
<path d="M227.772 303.273H278.122V397.328H227.772V303.273Z" fill="#3673F5"/>
<mask id="mask2_2_440" style="mask-type:luminance" maskUnits="userSpaceOnUse" x="226" y="372" width="72" height="35">
<path d="M226.206 372.671H297.984V406.765H226.206V372.671Z" fill="white"/>
</mask>
<g mask="url(#mask2_2_440)">
<path d="M226.727 372.815H297.516V406.727H226.727V372.815Z" fill="#056126"/>
</g>
<path d="M0.666016 224.147H46.3339V272.681H0.666016V224.147Z" fill="#BCD0FC"/>
<mask id="mask3_2_440" style="mask-type:luminance" maskUnits="userSpaceOnUse" x="0" y="202" width="71" height="52">
<path d="M0 202.049H70.2978V253.235H0V202.049Z" fill="white"/>
</mask>
<g mask="url(#mask3_2_440)">
<path d="M0.124512 202.441H69.8294V252.685H0.124512V202.441Z" fill="#3673F5"/>
</g>
<path d="M267.725 222.157H313.395V270.688H267.725V222.157Z" fill="#BCD0FC"/>
<mask id="mask4_2_440" style="mask-type:luminance" maskUnits="userSpaceOnUse" x="241" y="197" width="74" height="53">
<path d="M241.496 197.93H314.547V249.116H241.496V197.93Z" fill="white"/>
</mask>
<g mask="url(#mask4_2_440)">
<path d="M241.527 198.31H314.491V248.756H241.527V198.31Z" fill="#3673F5"/>
</g>
<path d="M220.58 96.8407C220.58 108.341 210.466 117.665 197.989 117.665C185.514 117.665 175.399 108.341 175.399 96.8407C175.399 85.3427 185.514 76.0188 197.989 76.0188C210.466 76.0188 220.58 85.3427 220.58 96.8407Z" fill="#BCD0FC"/>
<path d="M218.199 93.3805C218.199 93.7942 218.176 94.2056 218.133 94.617C218.089 95.0284 218.025 95.4374 217.937 95.8419C217.85 96.2464 217.74 96.6463 217.611 97.0416C217.48 97.4369 217.328 97.8253 217.158 98.2068C216.986 98.5883 216.795 98.9629 216.584 99.326C216.372 99.6914 216.143 100.043 215.894 100.388C215.644 100.73 215.377 101.063 215.095 101.381C214.81 101.7 214.509 102.006 214.191 102.298C213.877 102.59 213.543 102.868 213.199 103.13C212.852 103.392 212.491 103.637 212.118 103.867C211.746 104.097 211.362 104.309 210.967 104.504C210.572 104.697 210.167 104.874 209.754 105.033C209.34 105.191 208.919 105.329 208.49 105.448C208.062 105.568 207.628 105.669 207.189 105.75C206.747 105.83 206.306 105.892 205.86 105.931C205.414 105.972 204.966 105.993 204.518 105.993C204.07 105.993 203.624 105.972 203.178 105.931C202.732 105.892 202.289 105.83 201.85 105.75C201.411 105.669 200.977 105.568 200.547 105.448C200.119 105.329 199.697 105.191 199.283 105.033C198.869 104.874 198.465 104.697 198.069 104.504C197.674 104.309 197.29 104.097 196.918 103.867C196.546 103.637 196.187 103.392 195.84 103.13C195.493 102.868 195.162 102.59 194.845 102.298C194.528 102.006 194.227 101.7 193.944 101.381C193.659 101.061 193.393 100.73 193.144 100.388C192.894 100.043 192.664 99.6914 192.453 99.326C192.241 98.9629 192.05 98.5883 191.88 98.2068C191.708 97.8253 191.556 97.4369 191.428 97.0416C191.297 96.6463 191.189 96.2464 191.101 95.8419C191.014 95.4374 190.947 95.0284 190.904 94.617C190.86 94.2056 190.837 93.7942 190.837 93.3805C190.837 92.9692 190.86 92.5555 190.904 92.1464C190.947 91.735 191.014 91.3259 191.101 90.9214C191.189 90.517 191.297 90.1148 191.428 89.7195C191.556 89.3265 191.708 88.9381 191.88 88.5543C192.05 88.1728 192.241 87.8005 192.453 87.4373C192.664 87.0719 192.894 86.718 193.144 86.3756C193.393 86.0308 193.659 85.6999 193.944 85.3804C194.227 85.061 194.528 84.7553 194.845 84.4634C195.162 84.1716 195.493 83.8958 195.84 83.6338C196.187 83.3718 196.546 83.1259 196.918 82.8961C197.29 82.6662 197.674 82.4548 198.069 82.2594C198.465 82.0641 198.869 81.8894 199.283 81.7309C199.697 81.5723 200.119 81.4344 200.547 81.3126C200.977 81.1931 201.411 81.0943 201.85 81.0138C202.289 80.9334 202.732 80.8713 203.178 80.8323C203.624 80.7909 204.07 80.7702 204.518 80.7702C204.966 80.7702 205.414 80.7909 205.86 80.8323C206.306 80.8713 206.747 80.9334 207.189 81.0138C207.628 81.0943 208.062 81.1931 208.49 81.3126C208.919 81.4344 209.34 81.5723 209.754 81.7309C210.167 81.8894 210.572 82.0641 210.967 82.2594C211.362 82.4548 211.746 82.6662 212.118 82.8961C212.491 83.1259 212.852 83.3718 213.199 83.6338C213.543 83.8958 213.877 84.1716 214.191 84.4634C214.509 84.7553 214.81 85.061 215.095 85.3804C215.377 85.6999 215.644 86.0308 215.894 86.3756C216.143 86.718 216.372 87.0719 216.584 87.4373C216.795 87.8005 216.986 88.1728 217.158 88.5543C217.328 88.9381 217.48 89.3265 217.611 89.7195C217.74 90.1148 217.85 90.517 217.937 90.9214C218.025 91.3259 218.089 91.735 218.133 92.1464C218.176 92.5555 218.199 92.9692 218.199 93.3805Z" fill="#020B20"/>
<path d="M159.159 163.766H195.643V180.579H159.159V163.766Z" fill="#056126"/>
</svg>
