<svg width="1440" height="848" viewBox="0 0 1440 848" fill="none" xmlns="http://www.w3.org/2000/svg">
<g opacity="0.4" clip-path="url(#clip0_2001_2)">
<rect opacity="0.2" width="1440" height="2" fill="#BCD0FC"/>
<rect opacity="0.2" y="6" width="1440" height="2" fill="#BCD0FC"/>
<rect opacity="0.2" y="12" width="1440" height="2" fill="#BCD0FC"/>
<rect opacity="0.2" y="18" width="1440" height="2" fill="#BCD0FC"/>
<rect opacity="0.2" y="24" width="1440" height="2" fill="#BCD0FC"/>
<rect opacity="0.2" y="30" width="1440" height="2" fill="#BCD0FC"/>
<rect opacity="0.2" y="36" width="1440" height="2" fill="#BCD0FC"/>
<rect opacity="0.2" y="42" width="1440" height="2" fill="#BCD0FC"/>
<rect opacity="0.2" y="48" width="1440" height="2" fill="#BCD0FC"/>
<rect opacity="0.2" y="54" width="1440" height="2" fill="#BCD0FC"/>
<rect opacity="0.2" y="60" width="1440" height="2" fill="#BCD0FC"/>
<rect opacity="0.2" y="66" width="1440" height="2" fill="#BCD0FC"/>
<rect opacity="0.2" y="72" width="1440" height="2" fill="#BCD0FC"/>
<rect opacity="0.2" y="78" width="1440" height="2" fill="#BCD0FC"/>
<rect opacity="0.2" y="84" width="1440" height="2" fill="#BCD0FC"/>
<rect opacity="0.2" y="90" width="1440" height="2" fill="#BCD0FC"/>
<rect opacity="0.2" y="96" width="1440" height="2" fill="#BCD0FC"/>
<rect opacity="0.2" y="102" width="1440" height="2" fill="#BCD0FC"/>
<rect opacity="0.2" y="108" width="1440" height="2" fill="#BCD0FC"/>
<rect opacity="0.2" y="114" width="1440" height="2" fill="#BCD0FC"/>
<rect opacity="0.2" y="120" width="1440" height="2" fill="#BCD0FC"/>
<rect opacity="0.2" y="126" width="1440" height="2" fill="#BCD0FC"/>
<rect opacity="0.2" y="132" width="1440" height="2" fill="#BCD0FC"/>
<rect opacity="0.2" y="138" width="1440" height="2" fill="#BCD0FC"/>
<rect opacity="0.2" y="144" width="1440" height="2" fill="#BCD0FC"/>
<rect opacity="0.2" y="150" width="1440" height="2" fill="#BCD0FC"/>
<rect opacity="0.2" y="156" width="1440" height="2" fill="#BCD0FC"/>
<rect opacity="0.2" y="162" width="1440" height="2" fill="#BCD0FC"/>
<rect opacity="0.2" y="168" width="1440" height="2" fill="#BCD0FC"/>
<rect opacity="0.2" y="174" width="1440" height="2" fill="#BCD0FC"/>
<rect opacity="0.2" y="180" width="1440" height="2" fill="#BCD0FC"/>
<rect opacity="0.2" y="186" width="1440" height="2" fill="#BCD0FC"/>
<rect opacity="0.2" y="192" width="1440" height="2" fill="#BCD0FC"/>
<rect opacity="0.2" y="198" width="1440" height="2" fill="#BCD0FC"/>
<rect opacity="0.2" y="204" width="1440" height="2" fill="#BCD0FC"/>
<rect opacity="0.2" y="210" width="1440" height="2" fill="#BCD0FC"/>
<rect opacity="0.2" y="216" width="1440" height="2" fill="#BCD0FC"/>
<rect opacity="0.2" y="222" width="1440" height="2" fill="#BCD0FC"/>
<rect opacity="0.2" y="228" width="1440" height="2" fill="#BCD0FC"/>
<rect opacity="0.2" y="234" width="1440" height="2" fill="#BCD0FC"/>
<rect opacity="0.2" y="240" width="1440" height="2" fill="#BCD0FC"/>
<rect opacity="0.2" y="246" width="1440" height="2" fill="#BCD0FC"/>
<rect opacity="0.2" y="252" width="1440" height="2" fill="#BCD0FC"/>
<rect opacity="0.2" y="258" width="1440" height="2" fill="#BCD0FC"/>
<rect opacity="0.2" y="264" width="1440" height="2" fill="#BCD0FC"/>
<rect opacity="0.2" y="270" width="1440" height="2" fill="#BCD0FC"/>
<rect opacity="0.2" y="276" width="1440" height="2" fill="#BCD0FC"/>
<rect opacity="0.2" y="282" width="1440" height="2" fill="#BCD0FC"/>
<rect opacity="0.2" y="288" width="1440" height="2" fill="#BCD0FC"/>
<rect opacity="0.2" y="294" width="1440" height="2" fill="#BCD0FC"/>
<rect opacity="0.2" y="300" width="1440" height="2" fill="#BCD0FC"/>
<rect opacity="0.2" y="306" width="1440" height="2" fill="#BCD0FC"/>
<rect opacity="0.2" y="312" width="1440" height="2" fill="#BCD0FC"/>
<rect opacity="0.2" y="318" width="1440" height="2" fill="#BCD0FC"/>
<rect opacity="0.2" y="324" width="1440" height="2" fill="#BCD0FC"/>
<rect opacity="0.2" y="330" width="1440" height="2" fill="#BCD0FC"/>
<rect opacity="0.2" y="336" width="1440" height="2" fill="#BCD0FC"/>
<rect opacity="0.2" y="342" width="1440" height="2" fill="#BCD0FC"/>
<rect opacity="0.2" y="348" width="1440" height="2" fill="#BCD0FC"/>
<rect opacity="0.2" y="354" width="1440" height="2" fill="#BCD0FC"/>
<rect opacity="0.2" y="360" width="1440" height="2" fill="#BCD0FC"/>
<rect opacity="0.2" y="366" width="1440" height="2" fill="#BCD0FC"/>
<rect opacity="0.2" y="372" width="1440" height="2" fill="#BCD0FC"/>
<rect opacity="0.2" y="378" width="1440" height="2" fill="#BCD0FC"/>
<rect opacity="0.2" y="384" width="1440" height="2" fill="#BCD0FC"/>
<rect opacity="0.2" y="390" width="1440" height="2" fill="#BCD0FC"/>
<rect opacity="0.2" y="396" width="1440" height="2" fill="#BCD0FC"/>
<rect opacity="0.2" y="402" width="1440" height="2" fill="#BCD0FC"/>
<rect opacity="0.2" y="408" width="1440" height="2" fill="#BCD0FC"/>
<rect opacity="0.2" y="414" width="1440" height="2" fill="#BCD0FC"/>
<rect opacity="0.2" y="420" width="1440" height="2" fill="#BCD0FC"/>
<rect opacity="0.2" y="426" width="1440" height="2" fill="#BCD0FC"/>
<rect opacity="0.2" y="432" width="1440" height="2" fill="#BCD0FC"/>
<rect opacity="0.2" y="438" width="1440" height="2" fill="#BCD0FC"/>
<rect opacity="0.2" y="444" width="1440" height="2" fill="#BCD0FC"/>
<rect opacity="0.2" y="450" width="1440" height="2" fill="#BCD0FC"/>
<rect opacity="0.2" y="456" width="1440" height="2" fill="#BCD0FC"/>
<rect opacity="0.2" y="462" width="1440" height="2" fill="#BCD0FC"/>
<rect opacity="0.2" y="468" width="1440" height="2" fill="#BCD0FC"/>
<rect opacity="0.2" y="474" width="1440" height="2" fill="#BCD0FC"/>
<rect opacity="0.2" y="480" width="1440" height="2" fill="#BCD0FC"/>
<rect opacity="0.2" y="486" width="1440" height="2" fill="#BCD0FC"/>
<rect opacity="0.2" y="492" width="1440" height="2" fill="#BCD0FC"/>
<rect opacity="0.2" y="498" width="1440" height="2" fill="#BCD0FC"/>
<rect opacity="0.2" y="504" width="1440" height="2" fill="#BCD0FC"/>
<rect opacity="0.2" y="510" width="1440" height="2" fill="#BCD0FC"/>
<rect opacity="0.2" y="516" width="1440" height="2" fill="#BCD0FC"/>
<rect opacity="0.2" y="522" width="1440" height="2" fill="#BCD0FC"/>
<rect opacity="0.2" y="528" width="1440" height="2" fill="#BCD0FC"/>
<rect opacity="0.2" y="534" width="1440" height="2" fill="#BCD0FC"/>
<rect opacity="0.2" y="540" width="1440" height="2" fill="#BCD0FC"/>
<rect opacity="0.2" y="546" width="1440" height="2" fill="#BCD0FC"/>
<rect opacity="0.2" y="552" width="1440" height="2" fill="#BCD0FC"/>
<rect opacity="0.2" y="558" width="1440" height="2" fill="#BCD0FC"/>
<rect opacity="0.2" y="564" width="1440" height="2" fill="#BCD0FC"/>
<rect opacity="0.2" y="570" width="1440" height="2" fill="#BCD0FC"/>
<rect opacity="0.2" y="576" width="1440" height="2" fill="#BCD0FC"/>
<rect opacity="0.2" y="582" width="1440" height="2" fill="#BCD0FC"/>
<rect opacity="0.2" y="588" width="1440" height="2" fill="#BCD0FC"/>
<rect opacity="0.2" y="594" width="1440" height="2" fill="#BCD0FC"/>
<rect opacity="0.2" y="600" width="1440" height="2" fill="#BCD0FC"/>
<rect opacity="0.2" y="606" width="1440" height="2" fill="#BCD0FC"/>
<rect opacity="0.2" y="612" width="1440" height="2" fill="#BCD0FC"/>
<rect opacity="0.2" y="618" width="1440" height="2" fill="#BCD0FC"/>
<rect opacity="0.2" y="624" width="1440" height="2" fill="#BCD0FC"/>
<rect opacity="0.2" y="630" width="1440" height="2" fill="#BCD0FC"/>
<rect opacity="0.2" y="636" width="1440" height="2" fill="#BCD0FC"/>
<rect opacity="0.2" y="642" width="1440" height="2" fill="#BCD0FC"/>
<rect opacity="0.2" y="648" width="1440" height="2" fill="#BCD0FC"/>
<rect opacity="0.2" y="654" width="1440" height="2" fill="#BCD0FC"/>
<rect opacity="0.2" y="660" width="1440" height="2" fill="#BCD0FC"/>
<rect opacity="0.2" y="666" width="1440" height="2" fill="#BCD0FC"/>
<rect opacity="0.2" y="672" width="1440" height="2" fill="#BCD0FC"/>
<rect opacity="0.2" y="678" width="1440" height="2" fill="#BCD0FC"/>
<rect opacity="0.2" y="684" width="1440" height="2" fill="#BCD0FC"/>
<rect opacity="0.2" y="690" width="1440" height="2" fill="#BCD0FC"/>
<rect opacity="0.2" y="696" width="1440" height="2" fill="#BCD0FC"/>
<rect opacity="0.2" y="702" width="1440" height="2" fill="#BCD0FC"/>
<rect opacity="0.2" y="708" width="1440" height="2" fill="#BCD0FC"/>
<rect opacity="0.2" y="714" width="1440" height="2" fill="#BCD0FC"/>
<rect opacity="0.2" y="720" width="1440" height="2" fill="#BCD0FC"/>
<rect opacity="0.2" y="726" width="1440" height="2" fill="#BCD0FC"/>
<rect opacity="0.2" y="732" width="1440" height="2" fill="#BCD0FC"/>
<rect opacity="0.2" y="738" width="1440" height="2" fill="#BCD0FC"/>
<rect opacity="0.2" y="744" width="1440" height="2" fill="#BCD0FC"/>
<rect opacity="0.2" y="750" width="1440" height="2" fill="#BCD0FC"/>
<rect opacity="0.2" y="756" width="1440" height="2" fill="#BCD0FC"/>
<rect opacity="0.2" y="762" width="1440" height="2" fill="#BCD0FC"/>
<rect opacity="0.2" y="768" width="1440" height="2" fill="#BCD0FC"/>
<rect opacity="0.2" y="774" width="1440" height="2" fill="#BCD0FC"/>
<rect opacity="0.2" y="780" width="1440" height="2" fill="#BCD0FC"/>
<rect opacity="0.2" y="786" width="1440" height="2" fill="#BCD0FC"/>
<rect opacity="0.2" y="792" width="1440" height="2" fill="#BCD0FC"/>
<rect opacity="0.2" y="798" width="1440" height="2" fill="#BCD0FC"/>
<rect opacity="0.2" y="804" width="1440" height="2" fill="#BCD0FC"/>
<rect opacity="0.2" y="810" width="1440" height="2" fill="#BCD0FC"/>
<rect opacity="0.2" y="816" width="1440" height="2" fill="#BCD0FC"/>
<rect opacity="0.2" y="822" width="1440" height="2" fill="#BCD0FC"/>
<rect opacity="0.2" y="828" width="1440" height="2" fill="#BCD0FC"/>
<rect opacity="0.2" y="834" width="1440" height="2" fill="#BCD0FC"/>
<rect opacity="0.2" y="840" width="1440" height="2" fill="#BCD0FC"/>
<rect opacity="0.2" y="846" width="1440" height="2" fill="#BCD0FC"/>
</g>
<defs>
<clipPath id="clip0_2001_2">
<rect width="1440" height="848" fill="white"/>
</clipPath>
</defs>
</svg>
